<svg width="480" height="465" viewBox="0 0 480 465" fill="none" xmlns="http://www.w3.org/2000/svg">
<rect width="480" height="465" fill="url(#paint0_linear_273_8)" style=""/>
<path d="M102.849 194.909H108.985V213.205H109.227L121.798 194.909H127.181V224H121.031V205.69H120.817L108.175 224H102.849V194.909ZM131.027 217.821H136.893C136.922 218.541 137.244 219.109 137.859 219.526C138.475 219.942 139.27 220.151 140.246 220.151C141.231 220.151 142.059 219.923 142.732 219.469C143.404 219.005 143.74 218.342 143.74 217.48C143.74 216.95 143.607 216.491 143.342 216.102C143.077 215.705 142.708 215.392 142.234 215.165C141.761 214.937 141.212 214.824 140.587 214.824H137.447V210.861H140.587C141.524 210.861 142.244 210.643 142.746 210.207C143.257 209.772 143.513 209.227 143.513 208.574C143.513 207.835 143.248 207.243 142.717 206.798C142.196 206.344 141.491 206.116 140.601 206.116C139.701 206.116 138.953 206.32 138.357 206.727C137.769 207.125 137.466 207.646 137.447 208.29H131.609C131.628 206.983 132.021 205.851 132.788 204.895C133.565 203.938 134.607 203.2 135.913 202.679C137.23 202.158 138.702 201.898 140.331 201.898C142.111 201.898 143.645 202.149 144.933 202.651C146.231 203.143 147.225 203.848 147.916 204.767C148.617 205.686 148.967 206.779 148.967 208.048C148.967 209.204 148.589 210.17 147.831 210.946C147.073 211.723 146.013 212.277 144.649 212.608V212.835C145.549 212.892 146.363 213.134 147.092 213.56C147.821 213.986 148.404 214.573 148.839 215.321C149.275 216.06 149.493 216.936 149.493 217.949C149.493 219.303 149.095 220.463 148.3 221.429C147.514 222.395 146.425 223.138 145.033 223.659C143.65 224.17 142.064 224.426 140.274 224.426C138.532 224.426 136.969 224.175 135.587 223.673C134.214 223.162 133.12 222.414 132.305 221.429C131.5 220.444 131.074 219.241 131.027 217.821ZM163.062 224.426C160.855 224.426 158.947 223.957 157.337 223.02C155.737 222.073 154.501 220.757 153.63 219.071C152.759 217.376 152.323 215.411 152.323 213.176C152.323 210.922 152.759 208.953 153.63 207.267C154.501 205.572 155.737 204.256 157.337 203.318C158.947 202.371 160.855 201.898 163.062 201.898C165.268 201.898 167.172 202.371 168.772 203.318C170.382 204.256 171.622 205.572 172.494 207.267C173.365 208.953 173.8 210.922 173.8 213.176C173.8 215.411 173.365 217.376 172.494 219.071C171.622 220.757 170.382 222.073 168.772 223.02C167.172 223.957 165.268 224.426 163.062 224.426ZM163.09 219.739C164.094 219.739 164.932 219.455 165.604 218.886C166.277 218.309 166.783 217.523 167.124 216.528C167.475 215.534 167.65 214.402 167.65 213.134C167.65 211.865 167.475 210.733 167.124 209.739C166.783 208.744 166.277 207.958 165.604 207.381C164.932 206.803 164.094 206.514 163.09 206.514C162.077 206.514 161.225 206.803 160.533 207.381C159.852 207.958 159.335 208.744 158.985 209.739C158.644 210.733 158.474 211.865 158.474 213.134C158.474 214.402 158.644 215.534 158.985 216.528C159.335 217.523 159.852 218.309 160.533 218.886C161.225 219.455 162.077 219.739 163.09 219.739ZM195.874 194.17L197.721 198.119C197.105 198.631 196.424 199.009 195.675 199.256C194.927 199.492 194.032 199.649 192.991 199.724C191.959 199.8 190.699 199.852 189.212 199.881C187.527 199.9 186.154 200.17 185.093 200.69C184.032 201.211 183.228 202.03 182.678 203.148C182.129 204.256 181.769 205.705 181.599 207.494H181.812C182.465 206.159 183.384 205.127 184.567 204.398C185.761 203.669 187.233 203.304 188.985 203.304C190.841 203.304 192.465 203.711 193.857 204.526C195.259 205.34 196.348 206.509 197.124 208.034C197.901 209.559 198.289 211.386 198.289 213.517C198.289 215.733 197.853 217.66 196.982 219.298C196.121 220.927 194.894 222.191 193.303 223.091C191.712 223.981 189.818 224.426 187.621 224.426C185.415 224.426 183.512 223.962 181.911 223.034C180.32 222.106 179.089 220.738 178.218 218.929C177.356 217.12 176.925 214.895 176.925 212.253V210.463C176.925 205.207 177.948 201.311 179.994 198.773C182.039 196.235 185.046 194.947 189.013 194.909C190.093 194.89 191.068 194.885 191.94 194.895C192.811 194.904 193.573 194.862 194.227 194.767C194.889 194.672 195.439 194.473 195.874 194.17ZM187.65 219.739C188.578 219.739 189.373 219.497 190.036 219.014C190.709 218.531 191.225 217.84 191.585 216.94C191.954 216.041 192.138 214.966 192.138 213.716C192.138 212.475 191.954 211.424 191.585 210.562C191.225 209.691 190.709 209.028 190.036 208.574C189.364 208.119 188.559 207.892 187.621 207.892C186.921 207.892 186.291 208.02 185.732 208.276C185.174 208.531 184.695 208.91 184.298 209.412C183.909 209.904 183.606 210.515 183.388 211.244C183.18 211.964 183.076 212.788 183.076 213.716C183.076 215.581 183.478 217.054 184.283 218.134C185.098 219.204 186.22 219.739 187.65 219.739ZM202.305 232.182V202.182H208.271V205.847H208.541C208.806 205.259 209.19 204.663 209.692 204.057C210.203 203.441 210.866 202.93 211.68 202.523C212.504 202.106 213.527 201.898 214.749 201.898C216.339 201.898 217.807 202.314 219.152 203.148C220.497 203.972 221.571 205.217 222.376 206.884C223.181 208.541 223.584 210.619 223.584 213.119C223.584 215.553 223.191 217.608 222.405 219.284C221.628 220.951 220.568 222.215 219.223 223.077C217.888 223.929 216.392 224.355 214.734 224.355C213.56 224.355 212.561 224.161 211.737 223.773C210.923 223.384 210.255 222.897 209.734 222.31C209.214 221.713 208.816 221.112 208.541 220.506H208.357V232.182H202.305ZM208.229 213.091C208.229 214.388 208.409 215.52 208.768 216.486C209.128 217.452 209.649 218.205 210.331 218.744C211.013 219.275 211.841 219.54 212.817 219.54C213.802 219.54 214.635 219.27 215.317 218.73C215.999 218.181 216.515 217.423 216.865 216.457C217.225 215.482 217.405 214.36 217.405 213.091C217.405 211.831 217.23 210.723 216.879 209.767C216.529 208.811 216.013 208.062 215.331 207.523C214.649 206.983 213.811 206.713 212.817 206.713C211.832 206.713 210.999 206.973 210.317 207.494C209.644 208.015 209.128 208.754 208.768 209.71C208.409 210.667 208.229 211.794 208.229 213.091ZM233.839 224.412C232.447 224.412 231.207 224.17 230.118 223.688C229.029 223.195 228.167 222.471 227.533 221.514C226.908 220.548 226.595 219.346 226.595 217.906C226.595 216.694 226.818 215.676 227.263 214.852C227.708 214.028 228.314 213.366 229.081 212.864C229.848 212.362 230.719 211.983 231.695 211.727C232.679 211.472 233.712 211.292 234.791 211.188C236.06 211.055 237.083 210.932 237.859 210.818C238.636 210.695 239.199 210.515 239.55 210.278C239.9 210.042 240.075 209.691 240.075 209.227V209.142C240.075 208.242 239.791 207.546 239.223 207.054C238.664 206.562 237.869 206.315 236.837 206.315C235.748 206.315 234.881 206.557 234.237 207.04C233.593 207.513 233.167 208.11 232.959 208.83L227.362 208.375C227.646 207.049 228.205 205.903 229.038 204.938C229.872 203.962 230.946 203.214 232.263 202.693C233.589 202.163 235.123 201.898 236.865 201.898C238.077 201.898 239.237 202.04 240.345 202.324C241.463 202.608 242.452 203.048 243.314 203.645C244.185 204.241 244.872 205.009 245.374 205.946C245.875 206.874 246.126 207.987 246.126 209.284V224H240.388V220.974H240.217C239.867 221.656 239.398 222.258 238.811 222.778C238.224 223.29 237.518 223.692 236.695 223.986C235.871 224.27 234.919 224.412 233.839 224.412ZM235.572 220.236C236.463 220.236 237.249 220.061 237.93 219.71C238.612 219.35 239.147 218.867 239.536 218.261C239.924 217.655 240.118 216.969 240.118 216.202V213.886C239.929 214.009 239.668 214.123 239.337 214.227C239.015 214.322 238.65 214.412 238.243 214.497C237.836 214.573 237.429 214.644 237.021 214.71C236.614 214.767 236.245 214.819 235.913 214.866C235.203 214.971 234.583 215.136 234.053 215.364C233.522 215.591 233.11 215.899 232.817 216.287C232.523 216.666 232.376 217.139 232.376 217.707C232.376 218.531 232.675 219.161 233.271 219.597C233.877 220.023 234.644 220.236 235.572 220.236ZM249.401 224L257.028 212.651L249.443 202.182H256.347L262.014 210.719H262.952V202.182H269.003V210.719H269.912L275.58 202.182H282.483L274.912 212.651L282.526 224H275.466L269.855 215.477H269.003V224H262.952V215.477H262.099L256.46 224H249.401ZM295.1 224.426C292.856 224.426 290.924 223.972 289.305 223.062C287.695 222.144 286.454 220.847 285.583 219.17C284.712 217.485 284.276 215.491 284.276 213.19C284.276 210.946 284.712 208.976 285.583 207.281C286.454 205.586 287.681 204.265 289.262 203.318C290.853 202.371 292.719 201.898 294.859 201.898C296.298 201.898 297.638 202.13 298.879 202.594C300.129 203.048 301.218 203.735 302.146 204.653C303.083 205.572 303.812 206.727 304.333 208.119C304.854 209.502 305.114 211.121 305.114 212.977V214.639H286.691V210.889H299.418C299.418 210.018 299.229 209.246 298.85 208.574C298.471 207.902 297.946 207.376 297.273 206.997C296.611 206.609 295.839 206.415 294.958 206.415C294.04 206.415 293.225 206.628 292.515 207.054C291.814 207.471 291.265 208.034 290.867 208.744C290.469 209.445 290.266 210.226 290.256 211.088V214.653C290.256 215.733 290.455 216.666 290.853 217.452C291.26 218.238 291.833 218.844 292.572 219.27C293.31 219.696 294.186 219.909 295.2 219.909C295.872 219.909 296.487 219.814 297.046 219.625C297.605 219.436 298.083 219.152 298.481 218.773C298.879 218.394 299.182 217.93 299.39 217.381L304.987 217.75C304.702 219.095 304.12 220.269 303.239 221.273C302.368 222.267 301.241 223.044 299.859 223.602C298.486 224.152 296.899 224.426 295.1 224.426ZM324.248 210.676V215.435H312.856V210.676H324.248ZM314.844 202.182V224H309.063V202.182H314.844ZM328.04 202.182V224H322.302V202.182H328.04ZM338.516 216.017L346.371 202.182H352.337V224H346.57V210.122L338.744 224H332.735V202.182H338.516V216.017ZM367.131 224.426C364.887 224.426 362.955 223.972 361.336 223.062C359.726 222.144 358.486 220.847 357.614 219.17C356.743 217.485 356.308 215.491 356.308 213.19C356.308 210.946 356.743 208.976 357.614 207.281C358.486 205.586 359.712 204.265 361.293 203.318C362.884 202.371 364.75 201.898 366.89 201.898C368.329 201.898 369.669 202.13 370.91 202.594C372.16 203.048 373.249 203.735 374.177 204.653C375.114 205.572 375.844 206.727 376.364 208.119C376.885 209.502 377.146 211.121 377.146 212.977V214.639H358.722V210.889H371.45C371.45 210.018 371.26 209.246 370.881 208.574C370.503 207.902 369.977 207.376 369.305 206.997C368.642 206.609 367.87 206.415 366.989 206.415C366.071 206.415 365.256 206.628 364.546 207.054C363.845 207.471 363.296 208.034 362.898 208.744C362.501 209.445 362.297 210.226 362.288 211.088V214.653C362.288 215.733 362.487 216.666 362.884 217.452C363.291 218.238 363.864 218.844 364.603 219.27C365.342 219.696 366.218 219.909 367.231 219.909C367.903 219.909 368.519 219.814 369.077 219.625C369.636 219.436 370.114 219.152 370.512 218.773C370.91 218.394 371.213 217.93 371.421 217.381L377.018 217.75C376.734 219.095 376.151 220.269 375.271 221.273C374.399 222.267 373.272 223.044 371.89 223.602C370.517 224.152 368.931 224.426 367.131 224.426ZM143.545 258.676V263.435H132.153V258.676H143.545ZM134.141 250.182V272H128.36V250.182H134.141ZM147.337 250.182V272H141.599V250.182H147.337ZM161.975 272.426C159.731 272.426 157.799 271.972 156.18 271.062C154.57 270.144 153.329 268.847 152.458 267.17C151.587 265.485 151.151 263.491 151.151 261.19C151.151 258.946 151.587 256.976 152.458 255.281C153.329 253.586 154.556 252.265 156.137 251.318C157.728 250.371 159.594 249.898 161.734 249.898C163.173 249.898 164.513 250.13 165.754 250.594C167.004 251.048 168.093 251.735 169.021 252.653C169.958 253.572 170.687 254.727 171.208 256.119C171.729 257.502 171.989 259.121 171.989 260.977V262.639H153.566V258.889H166.293C166.293 258.018 166.104 257.246 165.725 256.574C165.346 255.902 164.821 255.376 164.148 254.997C163.486 254.609 162.714 254.415 161.833 254.415C160.915 254.415 160.1 254.628 159.39 255.054C158.689 255.471 158.14 256.034 157.742 256.744C157.344 257.445 157.141 258.226 157.131 259.088V262.653C157.131 263.733 157.33 264.666 157.728 265.452C158.135 266.238 158.708 266.844 159.447 267.27C160.185 267.696 161.061 267.909 162.075 267.909C162.747 267.909 163.362 267.814 163.921 267.625C164.48 267.436 164.958 267.152 165.356 266.773C165.754 266.394 166.057 265.93 166.265 265.381L171.862 265.75C171.577 267.095 170.995 268.269 170.114 269.273C169.243 270.267 168.116 271.044 166.734 271.602C165.361 272.152 163.774 272.426 161.975 272.426ZM200.381 258.676V263.435H188.989V258.676H200.381ZM190.977 250.182V272H185.196V250.182H190.977ZM204.173 250.182V272H198.435V250.182H204.173ZM215.089 272.412C213.697 272.412 212.457 272.17 211.368 271.688C210.279 271.195 209.417 270.471 208.783 269.514C208.158 268.548 207.845 267.346 207.845 265.906C207.845 264.694 208.068 263.676 208.513 262.852C208.958 262.028 209.564 261.366 210.331 260.864C211.098 260.362 211.969 259.983 212.945 259.727C213.929 259.472 214.962 259.292 216.041 259.188C217.31 259.055 218.333 258.932 219.109 258.818C219.886 258.695 220.449 258.515 220.8 258.278C221.15 258.042 221.325 257.691 221.325 257.227V257.142C221.325 256.242 221.041 255.546 220.473 255.054C219.914 254.562 219.119 254.315 218.087 254.315C216.998 254.315 216.131 254.557 215.487 255.04C214.843 255.513 214.417 256.11 214.209 256.83L208.612 256.375C208.896 255.049 209.455 253.903 210.288 252.938C211.122 251.962 212.196 251.214 213.513 250.693C214.839 250.163 216.373 249.898 218.115 249.898C219.327 249.898 220.487 250.04 221.595 250.324C222.713 250.608 223.702 251.048 224.564 251.645C225.435 252.241 226.122 253.009 226.624 253.946C227.125 254.874 227.376 255.987 227.376 257.284V272H221.638V268.974H221.467C221.117 269.656 220.648 270.258 220.061 270.778C219.474 271.29 218.768 271.692 217.945 271.986C217.121 272.27 216.169 272.412 215.089 272.412ZM216.822 268.236C217.713 268.236 218.499 268.061 219.18 267.71C219.862 267.35 220.397 266.867 220.786 266.261C221.174 265.655 221.368 264.969 221.368 264.202V261.886C221.179 262.009 220.918 262.123 220.587 262.227C220.265 262.322 219.9 262.412 219.493 262.497C219.086 262.573 218.679 262.644 218.271 262.71C217.864 262.767 217.495 262.819 217.163 262.866C216.453 262.971 215.833 263.136 215.303 263.364C214.772 263.591 214.36 263.899 214.067 264.287C213.773 264.666 213.626 265.139 213.626 265.707C213.626 266.531 213.925 267.161 214.521 267.597C215.127 268.023 215.894 268.236 216.822 268.236ZM237.852 264.017L245.707 250.182H251.673V272H245.906V258.122L238.08 272H232.071V250.182H237.852V264.017ZM244.67 242.568H248.889C248.88 244.292 248.241 245.679 246.972 246.73C245.712 247.781 244.008 248.307 241.858 248.307C239.699 248.307 237.99 247.781 236.73 246.73C235.471 245.679 234.841 244.292 234.841 242.568H239.031C239.022 243.222 239.23 243.809 239.656 244.33C240.092 244.85 240.826 245.111 241.858 245.111C242.862 245.111 243.581 244.855 244.017 244.344C244.453 243.832 244.67 243.241 244.67 242.568ZM254.82 278.392V267.199H256.496C256.979 266.896 257.367 266.413 257.661 265.75C257.964 265.087 258.21 264.306 258.399 263.406C258.598 262.507 258.75 261.536 258.854 260.494C258.967 259.443 259.067 258.383 259.152 257.312L259.72 250.182H276.453V267.199H279.834V278.392H274.067V272H260.729V278.392H254.82ZM262.518 267.199H270.743V254.841H264.862L264.635 257.312C264.474 259.642 264.242 261.621 263.939 263.25C263.636 264.869 263.162 266.186 262.518 267.199ZM293.303 272.426C291.059 272.426 289.127 271.972 287.508 271.062C285.898 270.144 284.657 268.847 283.786 267.17C282.915 265.485 282.479 263.491 282.479 261.19C282.479 258.946 282.915 256.976 283.786 255.281C284.657 253.586 285.884 252.265 287.465 251.318C289.056 250.371 290.922 249.898 293.062 249.898C294.501 249.898 295.841 250.13 297.082 250.594C298.332 251.048 299.421 251.735 300.349 252.653C301.286 253.572 302.015 254.727 302.536 256.119C303.057 257.502 303.317 259.121 303.317 260.977V262.639H284.894V258.889H297.621C297.621 258.018 297.432 257.246 297.053 256.574C296.674 255.902 296.149 255.376 295.477 254.997C294.814 254.609 294.042 254.415 293.161 254.415C292.243 254.415 291.428 254.628 290.718 255.054C290.017 255.471 289.468 256.034 289.07 256.744C288.673 257.445 288.469 258.226 288.46 259.088V262.653C288.46 263.733 288.658 264.666 289.056 265.452C289.463 266.238 290.036 266.844 290.775 267.27C291.513 267.696 292.389 267.909 293.403 267.909C294.075 267.909 294.691 267.814 295.249 267.625C295.808 267.436 296.286 267.152 296.684 266.773C297.082 266.394 297.385 265.93 297.593 265.381L303.19 265.75C302.906 267.095 302.323 268.269 301.442 269.273C300.571 270.267 299.444 271.044 298.062 271.602C296.689 272.152 295.103 272.426 293.303 272.426ZM322.451 258.676V263.435H311.059V258.676H322.451ZM313.048 250.182V272H307.266V250.182H313.048ZM326.244 250.182V272H320.505V250.182H326.244ZM340.796 272.426C338.59 272.426 336.682 271.957 335.072 271.02C333.471 270.073 332.236 268.757 331.364 267.071C330.493 265.376 330.058 263.411 330.058 261.176C330.058 258.922 330.493 256.953 331.364 255.267C332.236 253.572 333.471 252.256 335.072 251.318C336.682 250.371 338.59 249.898 340.796 249.898C343.003 249.898 344.906 250.371 346.506 251.318C348.116 252.256 349.357 253.572 350.228 255.267C351.099 256.953 351.535 258.922 351.535 261.176C351.535 263.411 351.099 265.376 350.228 267.071C349.357 268.757 348.116 270.073 346.506 271.02C344.906 271.957 343.003 272.426 340.796 272.426ZM340.825 267.739C341.828 267.739 342.666 267.455 343.339 266.886C344.011 266.309 344.518 265.523 344.859 264.528C345.209 263.534 345.384 262.402 345.384 261.134C345.384 259.865 345.209 258.733 344.859 257.739C344.518 256.744 344.011 255.958 343.339 255.381C342.666 254.803 341.828 254.514 340.825 254.514C339.811 254.514 338.959 254.803 338.268 255.381C337.586 255.958 337.07 256.744 336.719 257.739C336.379 258.733 336.208 259.865 336.208 261.134C336.208 262.402 336.379 263.534 336.719 264.528C337.07 265.523 337.586 266.309 338.268 266.886C338.959 267.455 339.811 267.739 340.825 267.739Z" fill="white" style="fill:white;fill-opacity:1;"/>
<defs>
<linearGradient id="paint0_linear_273_8" x1="-6.25896e-06" y1="247" x2="480" y2="248.5" gradientUnits="userSpaceOnUse">
<stop stop-color="#3A72EC" style="stop-color:#3A72EC;stop-color:color(display-p3 0.2275 0.4471 0.9255);stop-opacity:1;"/>
<stop offset="1" stop-color="#082A73" style="stop-color:#082A73;stop-color:color(display-p3 0.0319 0.1634 0.4500);stop-opacity:1;"/>
</linearGradient>
</defs>
</svg>
