<svg version="1.1" id="Layer_1" xmlns="http://www.w3.org/2000/svg" xmlns:xlink="http://www.w3.org/1999/xlink" x="0px" y="0px"
	 width="100%" viewBox="0 0 917 710" enable-background="new 0 0 917 710" xml:space="preserve">
<path fill="#1E4867" opacity="1.000000" stroke="none" 
	d="
M564.076843,332.057739 
	C575.772949,327.506989 587.375977,325.828461 599.121643,329.793945 
	C603.774170,331.364685 608.017090,334.148651 611.888245,336.098969 
	C618.443970,330.849762 624.876282,325.401459 631.659729,320.432617 
	C633.971130,318.739563 637.087341,317.808929 639.971924,317.297607 
	C648.780823,315.736053 653.639771,321.386505 650.530273,329.743073 
	C646.757019,339.883606 642.216858,349.743134 638.574890,359.926788 
	C635.841370,367.570190 633.636475,375.456665 631.970459,383.397369 
	C631.415405,386.042847 632.495361,389.904877 634.298767,391.840485 
	C635.362183,392.981842 639.833862,392.250183 641.866699,390.947174 
	C648.570312,386.650238 655.254517,382.157013 661.221741,376.914581 
	C671.103088,368.233398 680.508789,359.000336 689.902710,349.783508 
	C691.828491,347.894043 693.208984,345.199707 694.180237,342.626984 
	C700.647339,325.496368 706.696472,308.203735 713.429260,291.180389 
	C715.391296,286.219482 718.497437,281.339355 722.215027,277.530945 
	C727.905334,271.701569 737.299927,271.289703 742.727234,276.183197 
	C745.191895,278.405426 746.500488,281.909912 748.221313,284.653870 
	C750.954712,281.817963 754.173218,277.809784 758.047363,274.590698 
	C767.879944,266.420654 779.048523,261.840485 792.166748,263.371307 
	C806.632507,265.059296 816.947205,275.447906 816.777222,290.069977 
	C816.684509,298.038116 815.024048,306.308929 812.394653,313.859589 
	C806.983398,329.398682 800.176453,344.446320 794.488464,359.896637 
	C791.694702,367.485565 789.106384,375.406982 788.198425,383.379913 
	C786.299011,400.059326 800.088318,407.403168 814.147095,400.411255 
	C821.211670,396.897797 826.829529,390.404266 832.948730,385.082550 
	C838.318481,380.412567 843.027832,374.845093 848.842041,370.860504 
	C855.622009,366.213989 863.756592,367.357727 868.122131,372.152924 
	C873.020996,377.533905 873.599426,385.082062 868.701599,391.959686 
	C852.519897,414.682587 831.370972,429.272949 802.675232,430.711914 
	C773.198425,432.190094 751.416931,408.636810 756.910583,379.618469 
	C759.824707,364.225800 765.820862,349.396454 770.713928,334.406891 
	C773.293213,326.505371 776.732544,318.884308 779.304138,310.980682 
	C780.513062,307.265015 781.083984,303.177582 781.055664,299.265045 
	C781.019958,294.341339 777.211182,291.246857 772.592224,292.844818 
	C767.846069,294.486816 762.971924,296.892914 759.265747,300.207825 
	C744.307922,313.586517 734.482544,330.576721 727.031677,348.973022 
	C719.221863,368.255432 711.901428,387.737518 703.955322,406.962128 
	C702.325134,410.906219 699.590515,415.227509 696.127747,417.427582 
	C684.739380,424.663177 673.787415,417.800629 672.761536,402.417786 
	C671.008484,403.705170 669.717834,404.767303 668.319519,405.661011 
	C660.077148,410.929047 652.316467,417.329956 643.448669,421.163696 
	C622.992310,430.007538 607.292969,423.114838 598.751160,403.135406 
	C595.698792,405.964966 592.502686,408.806458 589.442688,411.787720 
	C581.039368,419.974609 572.338196,427.629456 560.747437,431.157257 
	C552.175354,433.766205 544.018005,433.800354 536.459961,428.215942 
	C529.851257,434.711761 523.992432,441.663055 516.960083,447.095093 
	C507.122345,454.694031 496.871582,462.017273 485.957367,467.899750 
	C471.465149,475.710785 455.364075,477.180115 439.258759,474.362793 
	C419.020752,470.822540 404.518219,454.864746 401.941650,434.542389 
	C401.742004,432.967560 401.543976,431.392548 401.345215,429.817627 
	C400.795746,429.500397 400.246277,429.183167 399.696777,428.865936 
	C397.368591,431.626373 395.189209,434.530701 392.684570,437.120453 
	C384.938446,445.129730 377.632538,453.694305 369.121948,460.806152 
	C354.173096,473.297974 336.634735,478.178772 317.279877,474.300659 
	C300.192871,470.876984 287.433960,456.579742 284.777191,439.198639 
	C283.031860,427.780121 283.808746,416.563141 286.940063,405.567596 
	C294.490875,379.053314 308.526367,356.464294 329.968048,339.085876 
	C342.966064,328.550964 357.856995,322.146729 375.345428,324.791412 
	C394.738647,327.724152 404.944458,345.558777 396.746552,362.380066 
	C393.452698,369.138763 387.780487,372.595398 380.548431,373.366699 
	C372.895844,374.182861 367.440887,369.491760 366.482300,361.774689 
	C365.676910,355.290985 362.303955,353.169434 357.245392,357.247406 
	C349.802917,363.247162 342.511780,369.776642 336.558197,377.204254 
	C326.665192,389.546661 319.966461,403.756439 317.269257,419.521393 
	C316.574921,423.579865 316.444305,427.855316 316.835419,431.956635 
	C318.073395,444.939026 328.226288,451.086914 340.030487,445.647278 
	C344.409576,443.629303 349.022034,440.502014 351.666931,436.614380 
	C363.544037,419.156769 380.298889,408.572845 399.369598,400.987305 
	C402.873627,399.593597 404.172760,397.273621 405.242737,393.769135 
	C414.545990,363.298309 432.624695,340.646088 463.823212,330.572845 
	C473.752441,327.366974 484.162506,326.855957 494.330200,330.330444 
	C509.612152,335.552582 516.364197,350.205139 510.602356,365.288391 
	C506.533112,375.940765 499.652649,384.558502 490.127533,390.477234 
	C472.736023,401.283936 455.027527,411.598724 437.191772,421.658691 
	C433.034454,424.003571 432.315765,426.274170 433.718323,430.290283 
	C437.680145,441.634552 444.754913,451.862946 461.790680,448.584473 
	C475.312805,445.982178 486.282532,439.025848 495.966583,429.950073 
	C503.844696,422.566772 510.856842,414.262512 518.305664,406.416595 
	C521.344177,403.216095 522.361206,399.555450 522.531250,395.115448 
	C523.538452,368.816589 535.343018,348.695801 557.861023,334.973145 
	C559.695801,333.855042 561.762146,333.117035 564.076843,332.057739 
M570.387573,395.985535 
	C584.659180,385.375000 593.967102,370.301758 605.173340,356.952362 
	C606.138000,355.803223 605.667114,352.372803 604.633179,350.822266 
	C601.426086,346.012909 594.661804,344.531219 587.864868,347.215729 
	C569.413879,354.503021 558.591309,368.026093 555.868042,387.759430 
	C555.308899,391.811554 554.320984,396.383850 558.836975,399.032776 
	C563.125977,401.548523 566.348877,398.195282 570.387573,395.985535 
M470.332611,378.828094 
	C473.080170,376.665863 476.141907,374.795013 478.490356,372.262604 
	C481.034332,369.519348 483.677795,366.415894 484.829224,362.983551 
	C485.678955,360.450562 485.203247,356.132965 483.499756,354.438293 
	C481.571808,352.520325 477.398560,351.574402 474.588837,352.137573 
	C470.658508,352.925354 466.775330,355.052948 463.416138,357.389618 
	C450.482941,366.385925 443.264984,379.707031 436.926636,393.599792 
	C436.516602,394.498566 436.465027,395.560852 436.246704,396.547089 
	C436.615875,396.945282 436.985046,397.343475 437.354248,397.741669 
	C448.155060,391.577209 458.955902,385.412750 470.332611,378.828094 
z"/>
<path fill="#1D4766" opacity="1.000000" stroke="none" 
	d="
M47.134819,427.747559 
	C39.870914,391.951843 46.849026,358.387115 61.406681,326.279846 
	C82.305496,280.187073 113.818794,242.906296 157.769562,217.181580 
	C185.563919,200.913345 215.762207,194.828156 247.706863,201.280518 
	C283.784332,208.567673 309.778748,238.774612 313.697845,276.776550 
	C316.039246,299.480255 312.367645,321.361206 304.520081,342.501984 
	C289.618805,382.644958 268.198120,418.844177 237.381042,448.964874 
	C214.111206,471.708893 187.779388,489.936005 155.128174,495.473236 
	C118.224266,501.731689 85.448341,493.760345 62.018280,461.729156 
	C54.667847,451.680450 49.993515,440.300720 47.134819,427.747559 
M119.931190,348.489899 
	C117.418541,355.702850 114.497803,362.803375 112.474052,370.150970 
	C107.510094,388.173462 105.522957,406.443878 110.203827,424.876862 
	C116.660759,450.303802 134.848923,462.712158 160.637970,459.220123 
	C173.512329,457.476837 184.757660,451.656555 194.811096,443.730103 
	C226.931274,418.405518 249.755783,386.022339 265.927155,348.743652 
	C272.710754,333.105957 278.251862,317.077332 278.948212,299.793549 
	C279.372833,289.253998 279.212311,278.767883 274.930878,268.858643 
	C266.496216,249.337051 245.784622,239.727127 222.332535,244.444244 
	C202.164505,248.500824 185.911713,259.729462 171.277817,273.375519 
	C148.787308,294.347870 132.272232,319.583740 119.931190,348.489899 
z"/>
<path fill="#42B7E2" opacity="1.000000" stroke="none" 
	d="
M482.153839,496.326233 
	C524.721008,480.551208 567.217957,464.550690 611.163818,452.894836 
	C621.116516,450.255066 631.274536,448.389282 641.536804,446.517731 
	C641.006531,447.251312 640.317139,447.767700 639.542664,447.998444 
	C598.379272,460.262604 561.812927,482.285950 524.212158,502.146729 
	C502.620911,513.551208 480.881744,524.690735 458.986420,535.498352 
	C447.545746,541.145569 435.623566,545.817261 423.544525,550.953613 
	C405.530914,557.344666 388.031372,564.138123 370.218842,569.976868 
	C344.765015,578.320374 318.511475,583.497620 291.790222,584.751587 
	C268.922974,585.824768 246.003937,585.384521 223.155457,582.211121 
	C194.690536,578.257629 167.272766,570.879578 140.792999,559.871643 
	C131.763000,556.117737 122.865273,552.045654 113.689362,547.864563 
	C97.269470,537.433105 82.469749,525.699036 71.314346,509.870728 
	C70.546837,508.781647 69.233810,508.077057 68.174469,507.193665 
	C67.584465,505.656433 66.397972,504.062164 66.538177,502.594727 
	C66.774216,500.124268 67.179733,496.992279 68.783180,495.538147 
	C70.139473,494.308197 73.766472,494.158112 75.564629,495.101166 
	C81.425247,498.174744 86.907463,501.969543 92.537827,505.482727 
	C93.777412,506.256195 95.027451,507.012909 96.642937,508.264862 
	C97.641769,509.489441 98.123245,510.519226 98.920815,510.919983 
	C112.250763,517.618347 125.193604,525.369690 139.082504,530.605652 
	C159.107407,538.154907 180.108017,542.705322 201.448837,545.069275 
	C221.028641,547.238159 240.637787,550.409302 260.257507,550.590027 
	C279.381073,550.766296 298.697632,548.759460 317.632172,545.805664 
	C339.851379,542.339539 362.100677,538.046265 383.699371,531.878845 
	C411.139404,524.043457 437.989471,514.110657 464.975891,504.742218 
	C470.955139,502.666443 476.440857,499.169006 482.153839,496.326233 
z"/>
<path fill="#41B7E2" opacity="1.000000" stroke="none" 
	d="
M498.961121,154.058441 
	C505.836426,166.595352 502.034790,180.933365 490.463867,185.885239 
	C486.296661,187.668640 482.306671,187.557419 479.191162,183.780685 
	C476.704559,180.766342 477.396149,175.313828 480.499054,171.909241 
	C484.806122,167.183426 484.653320,165.428024 478.670654,163.150528 
	C476.168610,162.198029 472.992249,163.016907 469.317383,163.053864 
	C466.098114,163.544800 463.402618,163.474426 461.314850,164.566193 
	C446.660309,172.229736 443.013702,184.242905 445.548767,198.862289 
	C447.957489,212.753174 457.445618,221.466248 468.890228,228.400909 
	C486.173828,238.873611 505.455261,241.968750 525.138916,242.887619 
	C547.947937,243.952377 570.617126,242.523422 592.894470,236.976303 
	C610.206848,232.665451 627.216492,227.372025 642.538086,218.083557 
	C651.143188,212.866821 659.247681,206.683075 666.984253,200.224152 
	C672.232910,195.842239 677.617676,190.960815 678.248901,182.961426 
	C680.222168,178.161057 682.282104,173.647934 683.471313,168.916000 
	C689.189331,146.162094 677.839111,124.940628 657.753174,113.847939 
	C649.690735,109.395378 640.951233,107.988609 631.883545,106.630310 
	C630.257019,101.573601 628.722351,96.866051 627.419373,92.095245 
	C627.275085,91.567001 628.453552,90.677460 629.482849,89.966614 
	C653.531555,89.308441 674.057190,96.796532 690.278198,114.060074 
	C695.740051,119.872902 699.441650,127.339630 703.969849,134.445557 
	C704.133789,135.487762 704.236389,136.146439 704.423279,136.780243 
	C709.392822,153.629303 709.824158,170.429382 703.508118,187.034973 
	C696.370605,205.800644 683.419739,220.069977 667.781311,232.097549 
	C651.980164,244.250290 634.292358,252.843597 615.654968,259.786255 
	C595.756409,267.198700 575.175415,271.538269 554.137634,272.731903 
	C539.437622,273.565918 524.609558,272.144226 509.779022,271.386963 
	C508.466583,270.362427 507.288116,269.412231 505.949249,269.041718 
	C494.469788,265.864899 482.710602,263.499969 471.517761,259.530975 
	C452.715363,252.863663 436.465912,242.071045 424.379761,225.839722 
	C415.389404,213.765930 410.977753,200.158722 413.567657,185.129745 
	C416.735291,166.748108 427.920929,154.377014 444.978394,147.631836 
	C460.010651,141.687500 475.295319,140.552872 490.165924,148.612381 
	C493.192505,150.252716 496.034210,152.234207 498.961121,154.058441 
z"/>
<path fill="#215C83" opacity="1.000000" stroke="none" 
	d="
M475.478516,586.296143 
	C449.967621,597.575256 424.689972,609.425049 398.881073,619.975098 
	C372.351440,630.819824 344.539368,637.520508 316.176392,641.663452 
	C286.982574,645.927734 257.824921,645.640564 228.152802,639.791992 
	C227.106689,639.466187 226.690567,639.459717 226.274460,639.453247 
	C225.686066,639.433289 225.097656,639.413330 224.211304,638.833252 
	C223.632736,637.151306 223.155090,636.038635 223.103119,634.906433 
	C222.734009,626.864807 222.194168,618.817505 222.247009,610.775513 
	C222.274979,606.520264 223.382248,602.272034 224.440582,598.018799 
	C233.927933,598.993347 242.956680,600.493896 252.029892,600.844971 
	C276.446716,601.789917 300.935028,601.728638 324.895569,596.402405 
	C348.490540,591.157410 371.911011,585.049316 395.221710,578.641907 
	C404.751892,576.022278 413.792297,571.620850 423.439697,568.017578 
	C426.017853,567.275574 428.211792,566.545898 430.405884,565.816650 
	C438.208466,563.222961 445.564850,558.835266 454.294373,559.984558 
	C456.722137,560.304138 459.249542,560.905396 461.603302,560.544006 
	C467.465210,559.643982 473.253479,558.264343 479.045380,557.477112 
	C476.801788,565.380432 474.566437,572.878784 472.375336,580.390076 
	C471.523590,583.310059 471.902008,585.664001 475.478516,586.296143 
z"/>
<path fill="#256D97" opacity="1.000000" stroke="none" 
	d="
M581.957886,313.204315 
	C580.522827,313.408447 579.087769,313.612610 577.054749,313.559570 
	C574.934998,313.602264 573.413147,313.902130 571.891357,314.201996 
	C570.516296,314.396118 569.141174,314.590210 567.069702,314.528625 
	C564.567810,314.582153 562.762329,314.891296 560.956787,315.200439 
	C558.234131,315.436462 555.511536,315.672485 552.052368,315.592529 
	C540.900757,315.425110 530.485718,315.573639 520.070679,315.722168 
	C519.309509,315.656281 518.548401,315.590393 517.412292,314.971497 
	C516.226746,303.443146 523.111877,294.804596 526.444824,284.955505 
	C531.699585,285.301331 536.490723,285.833923 541.291565,285.945801 
	C568.190491,286.572815 594.004944,281.185974 619.225769,272.114685 
	C646.716309,262.227051 671.428345,248.162796 691.271057,226.285446 
	C699.967590,216.697159 706.735535,206.037445 711.229004,193.858139 
	C715.756348,181.587067 716.442627,168.904221 716.412354,155.996765 
	C724.591309,152.253983 732.414062,148.561142 740.236755,144.868286 
	C748.630920,173.432816 745.584045,201.144287 732.926636,227.695984 
	C717.674438,259.691040 691.152466,279.501587 659.454712,293.290192 
	C656.104553,294.747467 652.663391,295.995422 648.498718,297.269592 
	C643.118835,298.913910 638.504761,300.629211 633.890625,302.344513 
	C628.175476,303.827423 622.460266,305.310364 616.209595,306.618988 
	C615.079041,306.743408 614.483948,307.042145 613.888916,307.340881 
	C613.468750,307.491852 613.048523,307.642792 612.154053,307.616516 
	C611.082031,307.713013 610.484436,307.986694 609.886780,308.260315 
	C609.468445,308.429504 609.050171,308.598663 608.158203,308.601044 
	C607.085754,308.685608 606.486877,308.936981 605.888000,309.188354 
	C605.156921,309.384430 604.425781,309.580566 603.135071,309.555847 
	C601.679565,309.622528 600.783630,309.910004 599.887756,310.197449 
	C599.156372,310.390198 598.424927,310.582947 597.134338,310.555176 
	C595.679321,310.622223 594.783569,310.909851 593.887756,311.197449 
	C593.156372,311.390076 592.424988,311.582703 591.134521,311.555054 
	C589.679688,311.621124 588.783813,311.907471 587.888000,312.193787 
	C587.159668,312.394165 586.431396,312.594543 585.111328,312.567322 
	C583.665710,312.627930 582.811768,312.916107 581.957886,313.204315 
z"/>
<path fill="#1D4767" opacity="1.000000" stroke="none" 
	d="
M475.823120,586.241821 
	C471.902008,585.664001 471.523590,583.310059 472.375336,580.390076 
	C474.566437,572.878784 476.801788,565.380432 479.398254,557.410095 
	C491.281464,551.747925 502.915100,546.818787 514.266113,541.307617 
	C549.429382,524.235107 584.549133,507.070129 619.560486,489.688751 
	C643.782104,477.664001 668.785889,467.715729 695.368774,462.717957 
	C703.566528,461.176727 706.617920,457.873322 707.565918,450.243958 
	C708.301514,444.323639 707.747314,442.588074 701.939697,440.868042 
	C701.171326,440.640442 700.622437,439.672211 699.971863,439.046967 
	C735.056580,436.888428 767.953735,443.518402 797.159302,463.986816 
	C806.301575,470.394043 814.752747,477.795166 819.730408,488.206146 
	C823.369751,495.817993 822.007996,503.185486 816.554077,506.525787 
	C810.062561,510.501587 801.252380,508.886230 796.986877,501.494751 
	C785.670898,481.886078 766.948914,477.063080 746.683289,475.180756 
	C712.471741,472.003113 680.365662,480.367310 650.159119,495.418335 
	C613.820007,513.524963 578.191772,533.056152 542.215210,551.893127 
	C520.238770,563.399841 498.186127,574.760986 475.823120,586.241821 
z"/>
<path fill="#256D97" opacity="1.000000" stroke="none" 
	d="
M699.515991,438.954102 
	C700.622437,439.672211 701.171326,440.640442 701.939697,440.868042 
	C707.747314,442.588074 708.301514,444.323639 707.565918,450.243958 
	C706.617920,457.873322 703.566528,461.176727 695.368774,462.717957 
	C668.785889,467.715729 643.782104,477.664001 619.560486,489.688751 
	C584.549133,507.070129 549.429382,524.235107 514.266113,541.307617 
	C502.915100,546.818787 491.281464,551.747925 479.424194,557.010315 
	C473.253479,558.264343 467.465210,559.643982 461.603302,560.544006 
	C459.249542,560.905396 456.722137,560.304138 454.294373,559.984558 
	C445.564850,558.835266 438.208466,563.222961 430.405884,565.816650 
	C428.211792,566.545898 426.017853,567.275574 423.477417,567.599182 
	C423.393616,561.772034 423.656219,556.350769 423.918823,550.929565 
	C435.623566,545.817261 447.545746,541.145569 458.986420,535.498352 
	C480.881744,524.690735 502.620911,513.551208 524.212158,502.146729 
	C561.812927,482.285950 598.379272,460.262604 639.542664,447.998444 
	C640.317139,447.767700 641.006531,447.251312 641.937439,446.579163 
	C660.791321,441.349792 679.843872,439.477997 699.515991,438.954102 
z"/>
<path fill="#6AE1FD" opacity="1.000000" stroke="none" 
	d="
M677.934265,183.147858 
	C677.617676,190.960815 672.232910,195.842239 666.984253,200.224152 
	C659.247681,206.683075 651.143188,212.866821 642.538086,218.083557 
	C627.216492,227.372025 610.206848,232.665451 592.894470,236.976303 
	C570.617126,242.523422 547.947937,243.952377 525.138916,242.887619 
	C505.455261,241.968750 486.173828,238.873611 468.890228,228.400909 
	C457.445618,221.466248 447.957489,212.753174 445.548767,198.862289 
	C443.013702,184.242905 446.660309,172.229736 461.314850,164.566193 
	C463.402618,163.474426 466.098114,163.544800 468.952972,163.170105 
	C467.344849,166.463867 464.662750,169.428940 463.366058,172.910080 
	C459.474609,183.356964 463.490112,192.200714 470.390991,199.866104 
	C481.573822,212.287750 496.127228,218.482849 512.320801,220.858002 
	C544.971252,225.646957 577.100525,223.225540 607.710693,210.560013 
	C619.853027,205.535889 631.253113,198.273300 642.137817,190.788834 
	C651.529114,184.331177 656.662292,174.125778 660.873047,163.243301 
	C668.588135,168.444656 674.536194,174.747253 677.934265,183.147858 
z"/>
<path fill="#266D97" opacity="1.000000" stroke="none" 
	d="
M224.002258,598.020630 
	C223.382248,602.272034 222.274979,606.520264 222.247009,610.775513 
	C222.194168,618.817505 222.734009,626.864807 223.103119,634.906433 
	C223.155090,636.038635 223.632736,637.151306 223.959229,638.663940 
	C209.451202,634.536621 194.380875,631.226807 180.441711,625.269958 
	C141.037735,608.430847 108.841805,582.365906 86.375244,545.526978 
	C79.156509,533.690247 74.190491,520.479675 68.184158,507.545654 
	C69.233810,508.077057 70.546837,508.781647 71.314346,509.870728 
	C82.469749,525.699036 97.269470,537.433105 113.746185,548.198608 
	C115.363533,550.206665 116.599060,551.749512 118.065918,553.026672 
	C130.356857,563.728027 144.738586,571.127075 159.472015,577.518616 
	C172.943481,583.362793 187.035934,587.841187 201.023834,592.402954 
	C208.498947,594.840820 216.331192,596.183655 224.002258,598.020630 
z"/>
<path fill="#3181AA" opacity="1.000000" stroke="none" 
	d="
M525.985718,284.948029 
	C523.111877,294.804596 516.226746,303.443146 517.066528,314.806000 
	C516.633606,315.267822 516.171509,315.342072 515.253235,315.055237 
	C513.887695,314.728882 512.978333,314.763580 512.068970,314.798279 
	C510.655884,314.691406 509.242798,314.584534 507.341644,314.109253 
	C506.254242,313.772644 505.654877,313.804443 505.055542,313.836273 
	C503.969666,313.733612 502.883759,313.630920 501.303772,313.128296 
	C499.898865,312.742157 498.988068,312.755951 498.077271,312.769714 
	C497.304352,312.684631 496.531433,312.599548 495.311584,312.143250 
	C494.263336,311.786804 493.662079,311.801575 493.060791,311.816345 
	C492.290222,311.735718 491.519653,311.655090 490.312744,311.190125 
	C489.271362,310.808380 488.666321,310.811005 488.061310,310.813660 
	C485.963043,310.397522 483.864777,309.981384 481.323608,309.174622 
	C480.285156,308.757874 479.689636,308.731781 479.094086,308.705719 
	C446.500519,300.204407 417.921326,285.260132 397.098511,256.943237 
	C397.226807,254.106995 397.247925,251.961014 397.745178,249.931671 
	C399.953644,240.918228 406.568298,235.837860 414.577942,231.907730 
	C419.373138,236.694839 423.539032,241.733215 428.412201,245.955246 
	C443.860809,259.339630 461.133209,269.119629 481.960968,271.689270 
	C486.108337,274.032959 490.033539,276.756317 494.374786,277.898346 
	C504.807953,280.642883 515.436157,282.645874 525.985718,284.948029 
z"/>
<path fill="#69E0FC" opacity="1.000000" stroke="none" 
	d="
M481.928009,271.349915 
	C461.133209,269.119629 443.860809,259.339630 428.412201,245.955246 
	C423.539032,241.733215 419.373138,236.694839 414.470703,231.578522 
	C413.767212,230.531174 413.545074,229.888763 413.175964,229.346375 
	C403.056793,214.475250 398.685028,198.293182 401.869080,180.343933 
	C402.073273,179.193024 401.787170,177.955124 401.666016,175.453827 
	C396.011047,184.141617 389.218719,188.465637 379.878296,187.858902 
	C382.415894,164.864258 393.660614,147.364273 413.358582,135.376724 
	C424.227081,128.762482 436.333313,125.331909 448.895447,125.481728 
	C467.360748,125.701950 484.519714,130.072556 495.905396,146.545120 
	C497.290344,148.548843 497.967346,151.041840 498.966797,153.683258 
	C496.034210,152.234207 493.192505,150.252716 490.165924,148.612381 
	C475.295319,140.552872 460.010651,141.687500 444.978394,147.631836 
	C427.920929,154.377014 416.735291,166.748108 413.567657,185.129745 
	C410.977753,200.158722 415.389404,213.765930 424.379761,225.839722 
	C436.465912,242.071045 452.715363,252.863663 471.517761,259.530975 
	C482.710602,263.499969 494.469788,265.864899 505.949249,269.041718 
	C507.288116,269.412231 508.466583,270.362427 509.369812,271.424561 
	C499.989471,271.653442 490.958740,271.501678 481.928009,271.349915 
z"/>
<path fill="#3282AB" opacity="1.000000" stroke="none" 
	d="
M678.248901,182.961426 
	C674.536194,174.747253 668.588135,168.444656 661.117920,162.990906 
	C661.727173,152.362503 660.941040,142.320419 654.401550,133.345093 
	C645.832153,121.583572 631.104248,117.897224 618.590698,124.711960 
	C608.068359,130.442337 605.049133,142.915878 612.154663,151.301468 
	C615.627380,155.399780 619.744385,156.457214 624.633301,154.780243 
	C629.026428,153.273331 630.787598,150.722321 629.263672,146.012192 
	C628.728088,144.356934 628.669128,141.080612 629.378601,140.765640 
	C631.471558,139.836502 634.263489,139.295059 636.411194,139.905685 
	C642.118286,141.528381 644.694214,149.102707 642.503174,156.422043 
	C638.744263,168.979416 624.926147,177.640213 610.755188,176.396225 
	C599.254517,175.386612 589.686096,170.619736 582.023010,161.218689 
	C582.705322,159.113647 583.159973,157.395721 584.256348,156.351257 
	C588.317505,152.482300 592.375061,148.546600 596.859070,145.206711 
	C599.850098,142.978912 601.048584,140.650497 601.103760,136.949860 
	C601.207153,130.010666 603.381348,123.931320 608.572021,118.719734 
	C615.195801,112.069359 623.010620,108.465424 632.043335,106.960930 
	C640.951233,107.988609 649.690735,109.395378 657.753174,113.847939 
	C677.839111,124.940628 689.189331,146.162094 683.471313,168.916000 
	C682.282104,173.647934 680.222168,178.161057 678.248901,182.961426 
z"/>
<path fill="#6DE1FC" opacity="1.000000" stroke="none" 
	d="
M481.762451,496.273376 
	C476.440857,499.169006 470.955139,502.666443 464.975891,504.742218 
	C437.989471,514.110657 411.139404,524.043457 383.699371,531.878845 
	C362.100677,538.046265 339.851379,542.339539 317.632172,545.805664 
	C298.697632,548.759460 279.381073,550.766296 260.257507,550.590027 
	C240.637787,550.409302 221.028641,547.238159 201.448837,545.069275 
	C180.108017,542.705322 159.107407,538.154907 139.082504,530.605652 
	C125.193604,525.369690 112.250763,517.618347 98.920815,510.919983 
	C98.123245,510.519226 97.641769,509.489441 96.961884,508.409302 
	C107.786957,512.175232 118.554764,516.605347 129.561890,520.327759 
	C154.028717,528.601929 179.266647,533.510376 204.795914,537.241333 
	C235.132416,541.674805 265.668945,541.136536 296.023499,539.660583 
	C333.100220,537.857849 369.505188,530.464722 405.125336,519.852234 
	C430.624115,512.255371 455.961639,504.117157 481.762451,496.273376 
z"/>
<path fill="#3081AA" opacity="1.000000" stroke="none" 
	d="
M740.229431,144.482773 
	C732.414062,148.561142 724.591309,152.253983 716.341736,155.595673 
	C715.605408,153.643845 715.456116,151.991211 714.956848,150.452148 
	C713.401367,145.657867 711.925171,140.818390 709.990784,136.174469 
	C708.965820,133.713821 706.779541,132.431351 703.947754,134.050446 
	C699.441650,127.339630 695.740051,119.872902 690.278198,114.060074 
	C674.057190,96.796532 653.531555,89.308441 629.479492,89.644890 
	C629.012512,88.882202 629.013062,88.452377 629.397156,87.959503 
	C630.409119,87.683418 631.022339,87.367683 631.668091,87.272430 
	C646.030579,85.153938 660.398987,83.075783 674.760620,80.952049 
	C679.567200,80.241287 684.358276,79.425987 689.156433,78.658478 
	C703.800171,85.486847 714.336121,96.952515 723.653625,109.651779 
	C731.294922,120.066513 736.677490,131.663559 740.229431,144.482773 
z"/>
<path fill="#43B7E2" opacity="1.000000" stroke="none" 
	d="
M688.959351,78.385391 
	C684.358276,79.425987 679.567200,80.241287 674.760620,80.952049 
	C660.398987,83.075783 646.030579,85.153938 631.668091,87.272430 
	C631.022339,87.367683 630.409119,87.683418 629.004272,87.993759 
	C627.438965,88.345474 626.666077,88.677399 625.859070,88.842964 
	C607.372925,92.635376 591.736389,101.086319 580.016296,116.278946 
	C577.509399,119.528572 574.132690,122.107170 571.156677,124.994911 
	C573.259216,103.961105 584.493408,88.119904 601.927979,77.858200 
	C630.455322,61.067421 659.862549,61.686501 688.959351,78.385391 
z"/>
<path fill="#3393BD" opacity="1.000000" stroke="none" 
	d="
M571.050903,125.402489 
	C574.132690,122.107170 577.509399,119.528572 580.016296,116.278946 
	C591.736389,101.086319 607.372925,92.635376 625.859070,88.842964 
	C626.666077,88.677399 627.438965,88.345474 628.620728,88.056793 
	C629.013062,88.452377 629.012512,88.882202 629.015259,89.633759 
	C628.453552,90.677460 627.275085,91.567001 627.419373,92.095245 
	C628.722351,96.866051 630.257019,101.573601 631.883545,106.630310 
	C623.010620,108.465424 615.195801,112.069359 608.572021,118.719734 
	C603.381348,123.931320 601.207153,130.010666 601.103760,136.949860 
	C601.048584,140.650497 599.850098,142.978912 596.859070,145.206711 
	C592.375061,148.546600 588.317505,152.482300 584.256348,156.351257 
	C583.159973,157.395721 582.705322,159.113647 581.915222,160.910568 
	C572.576660,151.210602 569.201050,139.298676 571.050903,125.402489 
z"/>
<path fill="#3494BE" opacity="1.000000" stroke="none" 
	d="
M379.686310,188.234589 
	C389.218719,188.465637 396.011047,184.141617 401.666016,175.453827 
	C401.787170,177.955124 402.073273,179.193024 401.869080,180.343933 
	C398.685028,198.293182 403.056793,214.475250 413.175964,229.346375 
	C413.545074,229.888763 413.767212,230.531174 414.165070,231.456177 
	C406.568298,235.837860 399.953644,240.918228 397.745178,249.931671 
	C397.247925,251.961014 397.226807,254.106995 396.967712,256.634644 
	C385.769012,242.220612 379.960968,225.379196 378.906311,206.942749 
	C378.558533,200.863037 379.268158,194.722809 379.686310,188.234589 
z"/>
<path fill="#254D6C" opacity="1.000000" stroke="none" 
	d="
M524.228271,602.634277 
	C526.014465,609.745239 528.155579,612.033325 533.649841,612.145752 
	C536.435303,612.202698 540.180969,613.543030 541.470154,608.301025 
	C539.763184,608.097351 538.399597,607.895203 537.028687,607.778809 
	C533.500977,607.479187 532.994629,604.825806 533.610291,602.368591 
	C533.942322,601.043518 535.989258,599.362610 537.388794,599.235779 
	C541.826050,598.833618 546.322754,599.087097 551.101501,599.087097 
	C551.374756,604.998352 551.707886,610.450684 551.804626,615.907227 
	C551.822144,616.895569 551.109436,618.175171 550.329041,618.857056 
	C540.781555,627.199219 521.748352,623.745667 515.584045,612.622131 
	C510.315979,603.115967 512.872070,591.121765 521.489014,584.912964 
	C530.287964,578.573059 542.076477,579.929443 549.925354,588.184753 
	C545.661194,594.813110 545.661194,594.813049 538.637329,591.804871 
	C531.407898,588.708679 524.792847,593.489136 524.228271,602.634277 
z"/>
<path fill="#234C6B" opacity="1.000000" stroke="none" 
	d="
M640.131836,622.979736 
	C629.515442,619.378235 623.761841,612.726196 623.275940,603.874634 
	C622.788818,595.001099 627.399231,587.107849 635.341797,583.217529 
	C643.597351,579.173828 653.442444,580.544495 659.889160,586.635132 
	C666.593506,592.969055 668.611511,602.146667 665.098511,610.325867 
	C661.493103,618.720276 652.935242,623.887451 643.499695,623.350952 
	C642.505310,623.294434 641.515869,623.152649 640.131836,622.979736 
M653.467834,608.855591 
	C656.824341,602.866882 656.542725,598.235718 652.584961,594.335938 
	C649.212891,591.013245 644.209595,590.151245 640.180847,592.385254 
	C636.238831,594.571228 634.052979,597.912903 634.234192,602.550354 
	C634.407654,606.989075 636.734131,610.083435 640.635376,611.888916 
	C645.255981,614.027344 649.366211,612.811340 653.467834,608.855591 
z"/>
<path fill="#234C6B" opacity="1.000000" stroke="none" 
	d="
M600.101318,619.177856 
	C590.035095,625.335388 579.402466,624.546936 571.850342,617.321777 
	C564.882324,610.655396 563.157043,600.522766 567.877380,592.217957 
	C572.623657,583.867676 580.035278,580.132141 589.540771,581.131287 
	C598.453979,582.068176 604.762512,587.003723 607.611084,595.425354 
	C610.764587,604.748047 608.013977,612.712585 600.101318,619.177856 
M590.532837,612.350647 
	C596.060486,609.828491 598.654968,605.760376 597.886292,600.820801 
	C597.086426,595.680847 592.920837,591.641968 587.895142,591.223633 
	C583.541504,590.861267 580.085510,592.494568 577.782227,596.228455 
	C575.480225,599.960449 575.468018,603.909729 577.813416,607.523926 
	C580.575989,611.781067 584.621460,613.680298 590.532837,612.350647 
z"/>
<path fill="#224B6A" opacity="1.000000" stroke="none" 
	d="
M682.522827,607.987000 
	C682.523438,600.174194 682.693970,592.852905 682.453979,585.545166 
	C682.329956,581.770081 683.713074,580.445618 687.364136,580.790833 
	C692.632202,581.289124 698.093567,580.874146 703.162231,582.115540 
	C713.878174,584.740051 719.466858,592.634033 719.113892,603.177612 
	C718.812073,612.191223 712.034790,620.046631 702.020691,621.905457 
	C696.686096,622.895569 691.112061,622.794312 685.651245,622.732788 
	C684.598938,622.720947 682.814209,620.688782 682.673767,619.441467 
	C682.266907,615.829163 682.525269,612.141968 682.522827,607.987000 
M694.036499,591.646484 
	C693.581604,598.423706 693.126709,605.200867 692.658875,612.170227 
	C698.535767,613.100220 702.946289,612.681763 706.086548,608.358337 
	C708.780334,604.649780 708.921692,600.573669 706.735352,596.653809 
	C704.158630,592.034058 699.807983,590.843018 694.036499,591.646484 
z"/>
<path fill="#244D6C" opacity="1.000000" stroke="none" 
	d="
M738.019531,609.898315 
	C741.179504,611.038391 743.881836,612.672180 746.740906,613.020996 
	C748.344666,613.216614 750.207825,611.286133 751.954102,610.313538 
	C750.677063,609.273438 749.524963,607.989319 748.091187,607.255371 
	C746.333313,606.355652 744.305054,606.003052 742.454468,605.262268 
	C734.879272,602.229980 731.782288,596.706299 733.634460,589.660889 
	C735.139038,583.937744 742.208496,579.720276 749.115295,580.724548 
	C751.715942,581.102722 754.270569,582.038086 756.743530,582.987061 
	C759.321289,583.976135 762.544312,584.714966 760.529541,588.865723 
	C758.865051,592.295044 756.967285,594.549561 752.998413,591.647705 
	C752.357971,591.179443 751.391846,590.745972 750.674805,590.869385 
	C748.434631,591.255005 746.241699,591.915039 744.030457,592.468689 
	C745.583374,593.695251 746.992432,595.206848 748.723389,596.080811 
	C751.230713,597.346680 754.079651,597.935425 756.587891,599.199890 
	C761.177979,601.513672 763.270935,605.371399 763.168457,610.583435 
	C763.072021,615.484070 760.635132,618.705627 756.532104,620.909302 
	C748.500244,625.222778 738.732483,623.454956 730.767883,615.796204 
	C733.082520,613.791321 735.354919,611.822998 738.019531,609.898315 
z"/>
<path fill="#4E8BAC" opacity="1.000000" stroke="none" 
	d="
M520.380615,315.984039 
	C530.485718,315.573639 540.900757,315.425110 551.630493,315.537659 
	C541.526978,315.947815 531.108765,316.096863 520.380615,315.984039 
z"/>
<path fill="#4E8BAC" opacity="1.000000" stroke="none" 
	d="
M634.253296,302.423706 
	C638.504761,300.629211 643.118835,298.913910 648.140442,297.294800 
	C643.903931,299.094910 639.259888,300.798889 634.253296,302.423706 
z"/>
<path fill="#4E8BAC" opacity="1.000000" stroke="none" 
	d="
M561.266235,315.364319 
	C562.762329,314.891296 564.567810,314.582153 566.650513,314.504608 
	C565.143677,315.000214 563.359680,315.264191 561.266235,315.364319 
z"/>
<path fill="#4E8BAC" opacity="1.000000" stroke="none" 
	d="
M572.247803,314.356262 
	C573.413147,313.902130 574.934998,313.602264 576.693054,313.521301 
	C575.487610,313.996979 574.045898,314.253754 572.247803,314.356262 
z"/>
<path fill="#4E8BAC" opacity="1.000000" stroke="none" 
	d="
M498.309875,312.995697 
	C498.988068,312.755951 499.898865,312.742157 500.928467,312.961304 
	C500.212311,313.203400 499.377380,313.212555 498.309875,312.995697 
z"/>
<path fill="#4E8BAC" opacity="1.000000" stroke="none" 
	d="
M512.309021,315.015320 
	C512.978333,314.763580 513.887695,314.728882 514.921143,314.922943 
	C514.213196,315.178589 513.381104,315.205475 512.309021,315.015320 
z"/>
<path fill="#4E8BAC" opacity="1.000000" stroke="none" 
	d="
M582.190430,313.357239 
	C582.811768,312.916107 583.665710,312.627930 584.731262,312.561218 
	C584.102966,313.025177 583.262939,313.267639 582.190430,313.357239 
z"/>
<path fill="#4E8BAC" opacity="1.000000" stroke="none" 
	d="
M588.191406,312.338470 
	C588.783813,311.907471 589.679688,311.621124 590.753906,311.537415 
	C590.119873,311.987762 589.307373,312.235443 588.191406,312.338470 
z"/>
<path fill="#4E8BAC" opacity="1.000000" stroke="none" 
	d="
M594.191406,311.341492 
	C594.783569,310.909851 595.679321,310.622223 596.753784,310.537354 
	C596.119934,310.988556 595.307556,311.237061 594.191406,311.341492 
z"/>
<path fill="#4E8BAC" opacity="1.000000" stroke="none" 
	d="
M600.191528,310.341827 
	C600.783630,309.910004 601.679565,309.622528 602.753967,309.537903 
	C602.120117,309.989258 601.307739,310.237701 600.191528,310.341827 
z"/>
<path fill="#4E8BAC" opacity="1.000000" stroke="none" 
	d="
M505.252380,314.040192 
	C505.654877,313.804443 506.254242,313.772644 506.950134,313.942719 
	C506.514191,314.177765 505.981720,314.210938 505.252380,314.040192 
z"/>
<path fill="#4E8BAC" opacity="1.000000" stroke="none" 
	d="
M493.250916,312.027466 
	C493.662079,311.801575 494.263336,311.786804 494.957123,311.977600 
	C494.513428,312.201599 493.977203,312.220093 493.250916,312.027466 
z"/>
<path fill="#4E8BAC" opacity="1.000000" stroke="none" 
	d="
M488.249695,311.026276 
	C488.666321,310.811005 489.271362,310.808380 489.964233,311.015808 
	C489.514099,311.230225 488.976105,311.234558 488.249695,311.026276 
z"/>
<path fill="#4E8BAC" opacity="1.000000" stroke="none" 
	d="
M606.150513,309.327332 
	C606.486877,308.936981 607.085754,308.685608 607.818726,308.621857 
	C607.439575,309.028412 606.926331,309.247375 606.150513,309.327332 
z"/>
<path fill="#4E8BAC" opacity="1.000000" stroke="none" 
	d="
M479.275574,308.921173 
	C479.689636,308.731781 480.285156,308.757874 480.966919,308.986694 
	C480.521088,309.171844 479.989044,309.154236 479.275574,308.921173 
z"/>
<path fill="#4E8BAC" opacity="1.000000" stroke="none" 
	d="
M610.156128,308.383545 
	C610.484436,307.986694 611.082031,307.713013 611.817261,307.628967 
	C611.445129,308.048004 610.935303,308.277374 610.156128,308.383545 
z"/>
<path fill="#4E8BAC" opacity="1.000000" stroke="none" 
	d="
M614.164612,307.448547 
	C614.483948,307.042145 615.079041,306.743408 615.815552,306.636169 
	C615.451416,307.070557 614.945862,307.313416 614.164612,307.448547 
z"/>
<path fill="#266D97" opacity="1.000000" stroke="none" 
	d="
M226.503510,639.676147 
	C226.690567,639.459717 227.106689,639.466187 227.753998,639.694824 
	C227.567642,639.911011 227.150116,639.905029 226.503510,639.676147 
z"/>
<path fill="#3292BD" opacity="1.000000" stroke="none" 
	d="
M224.440582,598.018860 
	C216.331192,596.183655 208.498947,594.840820 201.023834,592.402954 
	C187.035934,587.841187 172.943481,583.362793 159.472015,577.518616 
	C144.738586,571.127075 130.356857,563.728027 118.065918,553.026672 
	C116.599060,551.749512 115.363533,550.206665 113.963943,548.452942 
	C122.865273,552.045654 131.763000,556.117737 140.792999,559.871643 
	C167.272766,570.879578 194.690536,578.257629 223.155457,582.211121 
	C246.003937,585.384521 268.922974,585.824768 291.790222,584.751587 
	C318.511475,583.497620 344.765015,578.320374 370.218842,569.976868 
	C388.031372,564.138123 405.530914,557.344666 423.544525,550.953613 
	C423.656219,556.350769 423.393616,561.772034 423.093262,567.611633 
	C413.792297,571.620850 404.751892,576.022278 395.221710,578.641907 
	C371.911011,585.049316 348.490540,591.157410 324.895569,596.402405 
	C300.935028,601.728638 276.446716,601.789917 252.029892,600.844971 
	C242.956680,600.493896 233.927933,598.993347 224.440582,598.018860 
z"/>
<path fill="#3292BD" opacity="1.000000" stroke="none" 
	d="
M703.969849,134.445557 
	C706.779541,132.431351 708.965820,133.713821 709.990784,136.174469 
	C711.925171,140.818390 713.401367,145.657867 714.956848,150.452148 
	C715.456116,151.991211 715.605408,153.643845 715.985474,155.645630 
	C716.442627,168.904221 715.756348,181.587067 711.229004,193.858139 
	C706.735535,206.037445 699.967590,216.697159 691.271057,226.285446 
	C671.428345,248.162796 646.716309,262.227051 619.225769,272.114685 
	C594.004944,281.185974 568.190491,286.572815 541.291565,285.945801 
	C536.490723,285.833923 531.699585,285.301331 526.444824,284.955505 
	C515.436157,282.645874 504.807953,280.642883 494.374786,277.898346 
	C490.033539,276.756317 486.108337,274.032959 481.960968,271.689270 
	C490.958740,271.501678 499.989471,271.653442 509.429443,271.767639 
	C524.609558,272.144226 539.437622,273.565918 554.137634,272.731903 
	C575.175415,271.538269 595.756409,267.198700 615.654968,259.786255 
	C634.292358,252.843597 651.980164,244.250290 667.781311,232.097549 
	C683.419739,220.069977 696.370605,205.800644 703.508118,187.034973 
	C709.824158,170.429382 709.392822,153.629303 704.423279,136.780243 
	C704.236389,136.146439 704.133789,135.487762 703.969849,134.445557 
z"/>
</svg>