<?xml version="1.0" encoding="iso-8859-1"?>
<!-- Uploaded to: SVG Repo, www.svgrepo.com, Generator: SVG Repo Mixer Tools -->
<svg height="800px" width="800px" version="1.1" id="Layer_1" xmlns="http://www.w3.org/2000/svg" xmlns:xlink="http://www.w3.org/1999/xlink" 
	 viewBox="0 0 508 508" xml:space="preserve">
<path style="fill:#FFFFFF;" d="M254,28.3C129.5,28.3,28.2,129.5,28.2,254S129.5,479.8,254,479.8S479.8,378.5,479.8,254
	S378.5,28.3,254,28.3z"/>
<path style="fill:#FFC10D;" d="M119.6,162.2c3.8,72.1,153.9,222.2,226.3,226.2c7-0.8,24.9-20.2,40.2-42.8l-45.7-45.7l-30,30
	c-5.3,5.3-14.7,5.3-20,0L178.1,217.6c-5.5-5.5-5.5-14.4,0-20l30-30L162.4,122C139.7,137.3,120.3,155.2,119.6,162.2z"/>
<g>
	<path style="fill:#194F82;" d="M414.1,333.7l-63.8-63.8c-5.3-5.3-14.7-5.3-20,0l-30,30L208,207.6l30-30c5.5-5.5,5.5-14.4,0-20
		l-63.8-63.8c-4.6-4.6-11.8-5.5-17.4-2c-20.2,12.4-67,44.2-65.5,71.6c4.7,87.7,167,248.6,254.6,253.2c27,0,58.1-45.9,70.2-65.6
		C419.5,345.5,418.7,338.3,414.1,333.7z M345.9,388.4c-72.4-4-222.5-154.1-226.3-226.2c0.7-7,20.1-25,42.8-40.3l45.7,45.7l-30,30
		c-5.5,5.5-5.5,14.4,0,20l112.3,112.3c5.3,5.3,14.7,5.3,20,0l30-30l45.7,45.7C370.8,368.2,352.9,387.6,345.9,388.4z"/>
	<path style="fill:#194F82;" d="M254,0C113.9,0,0,113.9,0,254s113.9,254,254,254s254-113.9,254-254S394.1,0,254,0z M254,479.8
		C129.5,479.8,28.2,378.5,28.2,254S129.5,28.2,254,28.2S479.8,129.5,479.8,254S378.5,479.8,254,479.8z"/>
</g>
</svg>